<svg xmlns:xlink="http://www.w3.org/1999/xlink" xmlns="http://www.w3.org/2000/svg" version="1.1" preserveAspectRatio="xMidYMid meet" viewBox="606 368 279 164"><g data-item-type="text" data-item="Business" id="logo__item--business" class="logo__item">
                <g transform="translate(609 530.1988001051003) scale(1 1) rotate(0 0 0)" class="logo__item__inner">
                    <text data-part-id="logo__item--business" dy="0" dominant-baseline="auto" alignment-baseline="auto" font-family="Montserrat" font-size="32px" fill="#2F2F8E" letter-spacing="0" font-weight="bold" font-style="normal" data-font-family="Montserrat" data-font-weight="bold" data-font-style="normal" data-ttf-url="/builder_assets/fontsttf/font-montserrat-bold-normal.ttf">Colombia Tailors</text>
                </g>
            </g><g data-item-type="image" data-item="Image" data-logo-item="" id="logo__item--logo_0" class="logo__item">
    <g class="logo__item__inner" transform="translate(674.3434443698362 362.5) scale(0.896855749861326 0.896855749861326) rotate(0 0 0)">
        
<g>
	<path data-part-id="logo__item--logo_0__0" fill="#2F2F8E" d="M130.3,30.2c-24.9-0.8-29-20.5-29-20.5H49.4c-6.1,22.2-29,20.1-29,20.1c-3.1,80.9,55,113.7,55,113.7   s-51.9-37-51.9-110.5c0,0,21.4,1.2,28-18.9h46.8c0,0,7.1,17.2,28,18.9c0,0,8.1,65.3-50.9,110.5C138,102.9,130.3,30.2,130.3,30.2"/>
	<path data-part-id="logo__item--logo_0__1" fill="#2F2F8E" d="M52.8,19.8c0,0-3.6,17.3-25.7,16.7c0,0-2.4,56.1,40.6,97.3c0,0-35.8-36.4-35.8-94.3   C31.9,39.5,49.8,37.7,52.8,19.8"/>
	<g>
		<path data-part-id="logo__item--logo_0__2" fill="#2B292E" d="M83.8,27.4c0,0-13.9,0.2-14.9,0l-3.4,9.9l6.1,10.1l-13,60.8L76.4,127l17.9-18.3l-13-60.8L87,36.7    L83.8,27.4z M74.4,121.3l-13.1-13.1L73,51.9l2.8,0.6l-11.4,54.8l12,12L74.4,121.3z"/>
	</g>
</g>

    </g>
</g></svg>
