<svg id="Objects" xmlns="http://www.w3.org/2000/svg" viewBox="0 0 154.76 191.2"><defs><style>.cls-1{fill:#4f6270;}.cls-2{fill:#474948;}.cls-3{fill:#3c3d3c;}.cls-4{fill:#3e3f3e;}.cls-5{fill:#252625;}.cls-6{fill:#2d2d2d;}</style></defs><title>measurements_suit</title><path class="cls-1" d="M243.64,219.59c-0.23-21.75-12.11-95.09-13.46-102.71s-7.18-6.28-7.18-6.28L221.84,113c-0.26.65-.57,1.43-0.9,2.37a26,26,0,0,1,2.07-4.8s-29.06-9-36.1-11.89l-6.5-6.28H153.94L146.88,99l-35.32,11.55a14.34,14.34,0,0,1,1.16,2.41l-1.16-2.41s-5.83-1.34-7.18,6.28-13.23,81-13.46,102.71,1.57,47.32,1.57,47.32h23.9c0,0.44,0,.87-0.05,1.27,0,0,10.91,9.27,40.82,13.46,0,0,8.22-4.34,10-9.57l7.92,9.57s42.46-6.73,44-9.57l-0.86-5.16h23.88S243.87,241.34,243.64,219.59ZM124.26,217c-1,6.58-2.75,15.67-4.32,24.63-0.29-10.49-1.4-58.06,2-72.57a130.24,130.24,0,0,1,4.16,13.41S126.51,202.84,124.26,217Zm88.4,17.79c-1.69-9-3.78-50.17-3.78-50.17l3.78-15.57,0-.63a2.44,2.44,0,0,1,0,.63C216,183.62,214.44,232,214,242.56,213.5,239.44,213,236.71,212.67,234.84Z" transform="translate(-88.9 -90.43)"/><path class="cls-2" d="M151.94,90.43H178.4s-3.06,21.35-3.93,23.85-10.13,25.79-10.13,25.79l-9.82-26.31Z" transform="translate(-88.9 -90.43)"/><path class="cls-3" d="M114.4,264.9c0.31-5.67,2-14.16,3.61-23.17,0-.09-1.88-58.3,1.9-74.63a24.33,24.33,0,0,1-.14-2.66c-2.55-35.86-7-48.28-9-53.41l-1.17-2.43s-5.83-1.34-7.18,6.28-13.23,81-13.46,102.71,1.57,47.32,1.57,47.32h23.9Z" transform="translate(-88.9 -90.43)"/><path class="cls-4" d="M165.17,270.06l7.92,9.57s42.46-6.73,44-9.57c0,0-4.7-28.26-6.39-37.23s-3.78-50.17-3.78-50.17l3.78-15.57s3.54-47,10.35-58.51c0,0-29.06-9-36.1-11.89l6.73,18.17-4.6,2.35,5.38,6.5S150,172.21,147.16,176.1C147.16,176.1,143.49,212.2,165.17,270.06Z" transform="translate(-88.9 -90.43)"/><path class="cls-2" d="M144.88,97l-35.32,11.55s6.73,9.72,10.17,58c0,0,3.44,9.42,4.34,13.9,0,0,.45,20.33-1.79,34.54s-7.62,40.07-7.92,51.13c0,0,10.91,9.27,40.82,13.46,0,0,8.22-4.34,10-9.57,0,0-9.12-28.7-11.81-41.86s-7.18-42.16-5.83-52.48l12.86-27.66L139,121.75l4.63-7.18-5.23-2.39Z" transform="translate(-88.9 -90.43)"/><path class="cls-3" d="M216.17,264.9c-1.16-7-2.64-13.26-4.2-22.27,0-.09,2.48-59.2-1.3-75.53a9.11,9.11,0,0,0,0-1.77c2.55-35.86,7.1-49.17,9.18-54.31l1.17-2.43s5.83-1.34,7.18,6.28,13.23,81,13.46,102.71-1.57,47.32-1.57,47.32h-23.9Z" transform="translate(-88.9 -90.43)"/><path class="cls-5" d="M160.39,148.07s12.41-30.61,13.87-34.87,4.15-22.76,4.15-22.76l6.5,6.28,6.73,18.17-4.6,2.35,5.38,6.5-44.89,52Z" transform="translate(-88.9 -90.43)"/><polygon class="cls-5" points="55.97 6.62 63.04 0 65.62 21.53 75.96 49.63 72.01 59.43 50.1 31.32 54.74 24.15 49.51 21.75 55.97 6.62"/><polygon class="cls-6" points="100.03 61.37 88.08 61.37 88.08 86.22 89.74 88.44 100.03 88.44 110.33 88.44 111.99 86.22 111.99 61.37 100.03 61.37"/><rect class="cls-5" x="88.08" y="61.37" width="23.91" height="6.14"/><circle class="cls-5" cx="65.76" cy="89.93" r="3.29"/><circle class="cls-5" cx="65.76" cy="115.05" r="3.29"/></svg>