<svg id="Objects" xmlns="http://www.w3.org/2000/svg" viewBox="0 0 144.61 177.48"><defs><style>.cls-1{fill:#4f6270;}.cls-2{fill:#f4f3ed;}.cls-3{fill:#eae9e4;}.cls-4{fill:#d1cfc9;}</style></defs><title>measurements_shirt</title><path class="cls-1" d="M235.67,401c-2-21.15-6.63-54.68-8.39-61.3a16.27,16.27,0,0,0-7.8-9.61l-32.7-15.68-3.93-9.21h-31l-3.9,9.14-32.83,15.74a16.27,16.27,0,0,0-7.8,9.61c-1.76,6.62-6.44,40.16-8.39,61.3s-3.71,53-2.54,57L96,473.17h17.94V459.71l11.89-86.33-0.18-1.25s6.44,44,6,50.2-6.93,52.76-6.93,52.76,2.93,5.55,17.17,5.55h50.94c14.24,0,17.17-5.55,17.17-5.55s-6.44-46.57-6.93-52.76,5.95-50.2,5.95-50.2l-0.18,1.25,11.7,85h0l0.19,1.35v13.46h17.94L238.21,458C239.38,453.94,237.62,422.12,235.67,401Z" transform="translate(-93.98 -303.17)"/><path class="cls-2" d="M123.8,371.38l-0.18-1.25c0.39-18.58-10.54-42.08-10.54-42.08a16.27,16.27,0,0,0-7.8,9.61c-1.76,6.62-6.44,40.16-8.39,61.3s-3.71,53-2.54,57L94,471.17h17.94V457.71l11.89-86.33h0Z" transform="translate(-93.98 -303.17)"/><polygon class="cls-3" points="17.94 152.84 0.38 152.84 0 168 17.94 168 17.94 154.54 18.12 153.19 17.94 152.84"/><path class="cls-2" d="M206.76,371.38l0.18-1.25c-0.39-18.58,10.54-42.08,10.54-42.08a16.27,16.27,0,0,1,7.8,9.61c1.76,6.62,6.44,40.16,8.39,61.3s3.71,53,2.54,57l0.38,15.17H218.65V457.71l-11.89-86.33h0Z" transform="translate(-93.98 -303.17)"/><polygon class="cls-3" points="124.67 152.84 142.23 152.84 142.6 168 124.67 168 124.67 154.54 124.48 153.19 124.67 152.84"/><path class="cls-3" d="M206.94,370.13c-0.39-18.58,10.54-42.08,10.54-42.08l-33-15.81H146.06l-33,15.81s10.93,23.5,10.54,42.08c0,0,6.44,44,6,50.2s-6.93,52.76-6.93,52.76,2.93,5.55,17.17,5.55h50.94c14.24,0,17.17-5.55,17.17-5.55s-6.44-46.57-6.93-52.76S206.94,370.13,206.94,370.13Z" transform="translate(-93.98 -303.17)"/><polygon class="cls-2" points="55.85 0 50.42 12.71 57.93 27.98 70.89 15.17 55.85 0"/><polygon class="cls-2" points="86.87 0 92.29 12.71 84.78 27.98 71.83 15.17 86.87 0"/><polygon class="cls-3" points="55.85 0 86.87 0 71.83 15.17 70.89 15.17 55.85 0"/><polygon class="cls-2" points="66.8 19.21 70.89 15.17 71.83 15.17 75.91 19.21 75.91 175.48 67.54 175.48 66.8 19.21"/><ellipse class="cls-4" cx="71.1" cy="18.73" rx="1.2" ry="1.32"/><ellipse class="cls-4" cx="71.1" cy="35.82" rx="1.2" ry="1.32"/><ellipse class="cls-4" cx="71.1" cy="52.9" rx="1.2" ry="1.32"/><ellipse class="cls-4" cx="71.1" cy="69.99" rx="1.2" ry="1.32"/><ellipse class="cls-4" cx="71.1" cy="87.08" rx="1.2" ry="1.32"/><ellipse class="cls-4" cx="71.1" cy="104.17" rx="1.2" ry="1.32"/><ellipse class="cls-4" cx="71.1" cy="121.26" rx="1.2" ry="1.32"/><ellipse class="cls-4" cx="71.1" cy="138.35" rx="1.2" ry="1.32"/></svg>